<svg xmlns="http://www.w3.org/2000/svg" width="32" height="32" viewBox="0 0 32 32">
  <g fill="none" fill-rule="evenodd" transform="translate(11 5)">
    <path fill="#1D1C39" d="M6.30981842,7.39524027 C7.41929211,7.39524027 8.05545,6.77693364 8.05545,5.6982151 C8.05545,4.68311213 7.37142368,4.00073227 6.35321316,4.00073227 L3.83631842,4.00073227 L3.83631842,2.09455378 C3.83631842,0.7197254 2.87134474,-0.000183066362 1.91845,-0.000183066362 C0.965107895,-0.000183066362 0.000134210526,0.7197254 0.000134210526,2.09455378 L0.000134210526,15.2437529 C0.000134210526,18.4039359 1.23084474,19.8130892 3.99155526,19.8130892 C5.48755526,19.8130892 6.34292368,19.4199542 6.97863421,19.0373455 C7.46492368,18.7609153 7.63760789,18.1746453 7.63760789,17.7183524 C7.63760789,16.8725858 7.08510789,15.9307094 6.29147632,15.9307094 C6.18187105,15.9307094 6.07092368,15.9494737 5.95147632,15.9906636 C5.90942368,16.0080549 5.86289737,16.0295652 5.81145,16.0538215 C5.60252895,16.1522197 5.31666053,16.2863158 4.89881842,16.2863158 C4.40402895,16.2863158 3.83631842,16.1078261 3.83631842,14.7137757 L3.83631842,7.39524027 L6.30981842,7.39524027 Z"/>
    <path fill="#FF22B1" d="M13.2226,12.9359268 C11.3673632,12.9359268 9.85794211,14.4800915 9.85794211,16.378032 C9.85794211,18.2764302 11.3673632,19.820595 13.2226,19.820595 C15.0778368,19.820595 16.5872579,18.2764302 16.5872579,16.378032 C16.5872579,14.4800915 15.0778368,12.9359268 13.2226,12.9359268"/>
  </g>
</svg>
